<?xml version="1.0" encoding="UTF-8" standalone="no"?>
<!-- Created with Inkscape (http://www.inkscape.org/) -->

<svg
   width="500"
   height="500"
   viewBox="0 0 132.29166 132.29167"
   version="1.1"
   id="svg1"
   xml:space="preserve"
   inkscape:export-filename="instagram.svg"
   inkscape:export-xdpi="96"
   inkscape:export-ydpi="96"
   xmlns:inkscape="http://www.inkscape.org/namespaces/inkscape"
   xmlns:sodipodi="http://sodipodi.sourceforge.net/DTD/sodipodi-0.dtd"
   xmlns="http://www.w3.org/2000/svg"
   xmlns:svg="http://www.w3.org/2000/svg"><sodipodi:namedview
     id="namedview1"
     pagecolor="#505050"
     bordercolor="#eeeeee"
     borderopacity="1"
     inkscape:showpageshadow="0"
     inkscape:pageopacity="0"
     inkscape:pagecheckerboard="0"
     inkscape:deskcolor="#505050"
     inkscape:document-units="px"
     inkscape:zoom="0.27928241"
     inkscape:cx="175.44965"
     inkscape:cy="399.23746"
     inkscape:window-width="1600"
     inkscape:window-height="829"
     inkscape:window-x="-8"
     inkscape:window-y="-8"
     inkscape:window-maximized="1"
     inkscape:current-layer="layer1"><inkscape:page
       x="0"
       y="0"
       width="132.29166"
       height="132.29167"
       id="page2"
       margin="0"
       bleed="0" /></sodipodi:namedview><defs
     id="defs1" /><g
     inkscape:label="Layer 1"
     inkscape:groupmode="layer"
     id="layer1"><path
       id="circle34"
       style="fill:#000000;stroke:none;stroke-width:2.49999;stroke-linecap:round;stroke-linejoin:round"
       d="M 66.145831,3.7499999e-6 A 66.145836,66.145836 0 0 0 1.2499999e-6,66.145843 66.145836,66.145836 0 0 0 66.145831,132.29166 66.145836,66.145836 0 0 0 132.29166,66.145843 66.145836,66.145836 0 0 0 66.145831,3.7499999e-6 Z M 83.478111,28.142473 v 6.65231 6.65282 h -4.72788 c -6.98783,0 -6.99699,0.008 -6.99699,6.85695 v 4.35839 h 5.98982 c 3.29436,0 5.98982,0.0998 5.98982,0.22221 0,0.12246 -0.28541,2.96152 -0.63459,6.30866 -0.34918,3.34713 -0.63672,6.28605 -0.63769,6.53138 -0.002,0.41059 -0.42787,0.44648 -5.35471,0.44648 h -5.35265 v 18.98851 18.989017 h -7.73131 c -4.2523,0 -7.80783,-0.077 -7.90133,-0.17054 -0.0935,-0.0935 -0.17001,-8.638137 -0.17001,-18.988497 v -18.81849 h -3.6959 -3.6959 v -6.75462 -6.75411 h 3.6959 3.6959 l 0.005,-4.65191 c 0.003,-2.55839 0.11909,-5.45449 0.25838,-6.43579 0.76995,-5.42423 3.42229,-9.48832 7.48791,-11.47268 3.26882,-1.59546 4.08181,-1.71683 12.3207,-1.84433 z" /></g></svg>
