<?xml version="1.0" encoding="UTF-8" standalone="no"?>
<!-- Created with Inkscape (http://www.inkscape.org/) -->

<svg
   width="500"
   height="500"
   viewBox="0 0 132.29166 132.29167"
   version="1.1"
   id="svg1"
   xml:space="preserve"
   inkscape:export-filename="instagram.svg"
   inkscape:export-xdpi="96"
   inkscape:export-ydpi="96"
   xmlns:inkscape="http://www.inkscape.org/namespaces/inkscape"
   xmlns:sodipodi="http://sodipodi.sourceforge.net/DTD/sodipodi-0.dtd"
   xmlns="http://www.w3.org/2000/svg"
   xmlns:svg="http://www.w3.org/2000/svg"><sodipodi:namedview
     id="namedview1"
     pagecolor="#505050"
     bordercolor="#eeeeee"
     borderopacity="1"
     inkscape:showpageshadow="0"
     inkscape:pageopacity="0"
     inkscape:pagecheckerboard="0"
     inkscape:deskcolor="#505050"
     inkscape:document-units="px"
     inkscape:zoom="0.27928241"
     inkscape:cx="175.44965"
     inkscape:cy="399.23746"
     inkscape:window-width="1600"
     inkscape:window-height="829"
     inkscape:window-x="-8"
     inkscape:window-y="-8"
     inkscape:window-maximized="1"
     inkscape:current-layer="layer1"><inkscape:page
       x="0"
       y="0"
       width="132.29166"
       height="132.29167"
       id="page2"
       margin="0"
       bleed="0" /></sodipodi:namedview><defs
     id="defs1" /><g
     inkscape:label="Layer 1"
     inkscape:groupmode="layer"
     id="layer1"><path
       id="path4"
       style="fill:#000000;stroke:none;stroke-width:2.49999;stroke-linecap:round;stroke-linejoin:round"
       d="M 66.145842,3.7499999e-6 A 66.145836,66.145836 0 0 0 2.4999999e-6,66.145835 66.145836,66.145836 0 0 0 66.145842,132.29166 66.145836,66.145836 0 0 0 132.29166,66.145835 66.145836,66.145836 0 0 0 66.145842,3.7499999e-6 Z M 66.135842,28.15539 h 0.001 c 16.80965,10e-6 20.85985,0.349245 25.38501,2.18798 4.32333,1.756727 8.33461,5.641707 10.230898,9.908956 1.12646,2.534892 1.86845,6.02695 2.14561,10.100675 0.33239,4.886758 0.33475,26.729844 0.004,31.579984 -0.5172,7.57526 -2.38774,12.285471 -6.398578,16.111161 -3.91745,3.736604 -8.21239,5.375014 -15.46314,5.897824 -4.14257,0.29882 -28.08335,0.29057 -32.29207,-0.0108 -8.21617,-0.58843 -13.5661,-3.29847 -17.51986,-8.873871 -1.40881,-1.98664 -2.63831,-4.927511 -3.22409,-7.712191 -0.74827,-3.55742 -0.95255,-9.536598 -0.82838,-24.270353 0.13306,-15.789017 0.24348,-17.104436 1.79576,-21.401794 2.33588,-6.466695 7.86457,-11.125418 14.97893,-12.621968 3.18211,-0.669377 8.52605,-0.895542 21.18527,-0.895553 z m 5.2e-4,7.109643 c -15.90507,0 -17.91938,0.04597 -19.66082,0.449069 -5.77442,1.336651 -9.46734,5.029569 -10.80399,10.803991 -0.40308,1.741432 -0.44959,3.755745 -0.44959,19.660815 0,15.905063 0.0465,17.919376 0.44959,19.660816 1.51218,6.53269 5.82878,10.25299 12.8788,11.09958 1.06413,0.127746 9.50145,0.204966 18.74976,0.171566 18.70448,-0.06761 18.71247,-0.06791 22.28493,-1.825728 3.53271,-1.73827 6.00139,-5.061738 7.01611,-9.445418 0.40307,-1.74144 0.44907,-3.755753 0.44907,-19.660816 0,-15.90507 -0.046,-17.919383 -0.44907,-19.660815 -1.02113,-4.411336 -3.55224,-7.820979 -7.03161,-9.473323 -3.75733,-1.784337 -3.696,-1.779737 -23.43318,-1.779737 z m 20.30727,6.079216 c 3.18976,0 5.42078,3.3604 4.17081,6.281787 -0.43074,1.006704 -1.57987,2.123082 -2.5709,2.497522 -2.2193,0.838513 -4.85739,-0.291171 -5.76761,-2.469617 -1.24073,-2.969492 0.96559,-6.309692 4.1677,-6.309692 z m -20.30469,5.391919 c 3.44756,2.61e-4 6.89389,0.852531 9.8273,2.556433 2.15966,1.254459 5.80195,4.896241 7.05641,7.0559 3.39054,5.837112 3.39054,13.897384 0,19.631359 -2.73577,4.62664 -7.44217,8.062383 -12.6049,9.202023 h -5.2e-4 c -4.80881,1.06151 -9.97438,0.286593 -14.1118,-2.116667 -2.15966,-1.25446 -5.80195,-4.89624 -7.05641,-7.0559 -3.40734,-5.866826 -3.40745,-13.786722 -5.2e-4,-19.660815 1.25267,-2.159797 4.89766,-5.804788 7.05745,-7.05745 2.93705,-1.703445 6.38542,-2.555144 9.83299,-2.554883 z m 0.46974,6.834725 c -6.28941,-0.253273 -11.96317,4.357585 -12.95787,10.783837 -0.97725,6.313512 3.26037,12.568876 9.54516,14.090096 7.12609,1.72484 14.29109,-3.112547 15.42075,-10.410734 1.05485,-6.814888 -3.84016,-13.351959 -10.743,-14.346411 -0.42356,-0.06102 -0.84574,-0.09991 -1.26504,-0.116788 z" /></g></svg>
