<?xml version="1.0" encoding="UTF-8" standalone="no"?>
<!-- Created with Inkscape (http://www.inkscape.org/) -->

<svg
   width="500"
   height="500"
   viewBox="0 0 132.29166 132.29167"
   version="1.1"
   id="svg1"
   xml:space="preserve"
   inkscape:export-filename="faceook.svg"
   inkscape:export-xdpi="96"
   inkscape:export-ydpi="96"
   xmlns:inkscape="http://www.inkscape.org/namespaces/inkscape"
   xmlns:sodipodi="http://sodipodi.sourceforge.net/DTD/sodipodi-0.dtd"
   xmlns="http://www.w3.org/2000/svg"
   xmlns:svg="http://www.w3.org/2000/svg"><sodipodi:namedview
     id="namedview1"
     pagecolor="#505050"
     bordercolor="#eeeeee"
     borderopacity="1"
     inkscape:showpageshadow="0"
     inkscape:pageopacity="0"
     inkscape:pagecheckerboard="0"
     inkscape:deskcolor="#505050"
     inkscape:document-units="px"
     inkscape:zoom="0.27928241"
     inkscape:cx="175.44965"
     inkscape:cy="399.23746"
     inkscape:window-width="1600"
     inkscape:window-height="829"
     inkscape:window-x="-8"
     inkscape:window-y="-8"
     inkscape:window-maximized="1"
     inkscape:current-layer="layer1"><inkscape:page
       x="0"
       y="0"
       width="132.29166"
       height="132.29167"
       id="page2"
       margin="0"
       bleed="0" /></sodipodi:namedview><defs
     id="defs1" /><g
     inkscape:label="Layer 1"
     inkscape:groupmode="layer"
     id="layer1"><path
       id="circle35"
       style="fill:#000000;stroke:none;stroke-width:2.49999;stroke-linecap:round;stroke-linejoin:round"
       d="M 66.145832,4.9999991e-7 A 66.145836,66.145836 0 0 0 2.0499999e-6,66.145832 66.145836,66.145836 0 0 0 66.145832,132.29166 66.145836,66.145836 0 0 0 132.29166,66.145832 66.145836,66.145836 0 0 0 66.145832,4.9999991e-7 Z M 65.227032,28.171407 c 7.28474,-0.22446 12.96977,0.854532 18.27433,3.468522 3.05774,1.5068 5.12262,3.001594 7.71064,5.581054 2.71859,2.70961 4.38192,5.06131 6.03788,8.53798 1.16996,2.45631 2.36597,5.772467 2.2195,6.154147 -0.0868,0.22626 -6.15545,2.024532 -6.28334,1.861902 -0.0329,-0.04184 -0.34616,-0.907504 -0.69608,-1.923914 -2.14063,-6.21794 -5.70101,-10.674939 -10.89132,-13.632759 -6.30769,-3.59459 -16.62093,-4.457718 -24.52202,-2.052588 -4.00579,1.21939 -7.32271,3.233044 -9.97407,6.055444 -3.72985,3.97045 -5.97924,9.236084 -7.12308,16.674434 -0.48993,3.18601 -0.48993,11.325259 0,14.511259 0.65427,4.25465 1.82852,8.291734 3.22255,11.079944 1.5071,3.014392 4.1806,6.257752 6.69261,8.119402 5.0858,3.76912 12.68696,5.50723 20.64318,4.72012 6.32104,-0.62535 10.50319,-2.39066 14.34228,-6.05441 3.22091,-3.07378 4.74768,-6.432545 4.73408,-10.413315 -0.0122,-3.57009 -1.02096,-6.070127 -3.39773,-8.420157 -0.82475,-0.81547 -1.77231,-1.635195 -2.10581,-1.821595 l -0.60668,-0.33848 -0.339,1.707389 c -0.78429,3.94911 -2.32929,7.12607 -4.65811,9.57771 -2.13547,2.2481 -4.49802,3.568085 -7.75405,4.332038 -2.10341,0.49354 -6.6598,0.4852 -8.54522,-0.0155 -6.64499,-1.764713 -10.5239,-6.253544 -10.5239,-12.179104 0,-3.18801 1.00332,-5.751344 3.13572,-8.013464 2.64579,-2.80674 5.90987,-4.368189 10.49342,-5.019849 1.78931,-0.2544 7.36693,-0.2544 9.58753,0 0.95883,0.10934 1.77989,0.163239 1.82469,0.118339 0.17891,-0.1789 -0.59825,-2.646229 -1.18235,-3.753259 -1.59537,-3.02361 -4.30164,-4.412134 -8.59896,-4.412134 -3.42522,0 -5.72737,0.879605 -7.69204,2.939355 l -1.0759,1.128614 -2.76004,-1.842782 c -3.14234,-2.09796 -3.04213,-1.804318 -1.27641,-3.750158 2.09122,-2.30457 4.96794,-3.969822 8.27081,-4.787822 2.5944,-0.64254 6.88173,-0.599315 9.51622,0.09663 2.9058,0.76762 4.82813,1.850731 6.83938,3.851961 1.94824,1.93852 3.01562,3.692595 3.88865,6.390825 0.45716,1.41293 1.18959,5.177091 1.18959,6.111771 0,0.10175 0.46367,0.393846 1.02991,0.649056 1.52992,0.68957 2.95749,1.588869 4.6917,2.954859 4.66196,3.67209 7.12189,9.371388 6.76393,15.672428 -0.34432,6.060774 -3.24492,11.426994 -8.43411,15.604214 -3.97177,3.197206 -8.18464,5.033606 -13.95419,6.082306 -1.6931,0.30778 -9.73497,0.55583 -11.47165,0.35399 -4.23762,-0.4925 -9.27585,-1.86149 -12.11812,-3.29283 -2.94586,-1.483496 -6.17138,-3.855246 -8.09511,-5.952596 -5.75318,-6.27245 -8.85559,-14.771329 -9.36842,-25.661999 -0.94436,-20.05493 6.76077,-34.303258 21.15478,-39.117508 3.73922,-1.25062 6.65069,-1.739782 11.18433,-1.879472 z m 3.68763,39.014672 c -2.08288,0.06692 -3.9805,0.316126 -5.34283,0.736906 -3.62803,1.12058 -5.72488,3.984297 -5.05189,6.899837 0.557,2.4131 2.85755,4.165319 6.10661,4.650879 3.55227,0.53086 6.87914,-0.373796 8.93795,-2.429826 1.65892,-1.65669 2.94215,-4.795221 3.29851,-8.066691 l 0.13022,-1.194242 -1.62367,-0.238745 c -2.10356,-0.30941 -4.37201,-0.425018 -6.4549,-0.358118 z" /></g></svg>
